<svg xmlns="http://www.w3.org/2000/svg" viewBox="0 0 1000 210" width="1000" height="210" role="img" aria-label="CODEQUEST-MCP">
<rect width="1000" height="210" rx="10" fill="#0d1117"/>
<rect x="1" y="1" width="998" height="208" rx="9" fill="none" stroke="#1f2a37"/>
<g fill="#f97316" fill-opacity="0.16" shape-rendering="crispEdges">
<rect x="56" y="76" width="12" height="12"/>
<rect x="68" y="76" width="12" height="12"/>
<rect x="80" y="76" width="12" height="12"/>
<rect x="44" y="88" width="12" height="12"/>
<rect x="92" y="88" width="12" height="12"/>
<rect x="44" y="100" width="12" height="12"/>
<rect x="44" y="112" width="12" height="12"/>
<rect x="44" y="124" width="12" height="12"/>
<rect x="44" y="136" width="12" height="12"/>
<rect x="92" y="136" width="12" height="12"/>
<rect x="56" y="148" width="12" height="12"/>
<rect x="68" y="148" width="12" height="12"/>
<rect x="80" y="148" width="12" height="12"/>
<rect x="128" y="76" width="12" height="12"/>
<rect x="140" y="76" width="12" height="12"/>
<rect x="152" y="76" width="12" height="12"/>
<rect x="116" y="88" width="12" height="12"/>
<rect x="164" y="88" width="12" height="12"/>
<rect x="116" y="100" width="12" height="12"/>
<rect x="164" y="100" width="12" height="12"/>
<rect x="116" y="112" width="12" height="12"/>
<rect x="164" y="112" width="12" height="12"/>
<rect x="116" y="124" width="12" height="12"/>
<rect x="164" y="124" width="12" height="12"/>
<rect x="116" y="136" width="12" height="12"/>
<rect x="164" y="136" width="12" height="12"/>
<rect x="128" y="148" width="12" height="12"/>
<rect x="140" y="148" width="12" height="12"/>
<rect x="152" y="148" width="12" height="12"/>
<rect x="188" y="76" width="12" height="12"/>
<rect x="200" y="76" width="12" height="12"/>
<rect x="212" y="76" width="12" height="12"/>
<rect x="224" y="76" width="12" height="12"/>
<rect x="188" y="88" width="12" height="12"/>
<rect x="236" y="88" width="12" height="12"/>
<rect x="188" y="100" width="12" height="12"/>
<rect x="236" y="100" width="12" height="12"/>
<rect x="188" y="112" width="12" height="12"/>
<rect x="236" y="112" width="12" height="12"/>
<rect x="188" y="124" width="12" height="12"/>
<rect x="236" y="124" width="12" height="12"/>
<rect x="188" y="136" width="12" height="12"/>
<rect x="236" y="136" width="12" height="12"/>
<rect x="188" y="148" width="12" height="12"/>
<rect x="200" y="148" width="12" height="12"/>
<rect x="212" y="148" width="12" height="12"/>
<rect x="224" y="148" width="12" height="12"/>
<rect x="260" y="76" width="12" height="12"/>
<rect x="272" y="76" width="12" height="12"/>
<rect x="284" y="76" width="12" height="12"/>
<rect x="296" y="76" width="12" height="12"/>
<rect x="308" y="76" width="12" height="12"/>
<rect x="260" y="88" width="12" height="12"/>
<rect x="260" y="100" width="12" height="12"/>
<rect x="260" y="112" width="12" height="12"/>
<rect x="272" y="112" width="12" height="12"/>
<rect x="284" y="112" width="12" height="12"/>
<rect x="296" y="112" width="12" height="12"/>
<rect x="260" y="124" width="12" height="12"/>
<rect x="260" y="136" width="12" height="12"/>
<rect x="260" y="148" width="12" height="12"/>
<rect x="272" y="148" width="12" height="12"/>
<rect x="284" y="148" width="12" height="12"/>
<rect x="296" y="148" width="12" height="12"/>
<rect x="308" y="148" width="12" height="12"/>
<rect x="344" y="76" width="12" height="12"/>
<rect x="356" y="76" width="12" height="12"/>
<rect x="368" y="76" width="12" height="12"/>
<rect x="332" y="88" width="12" height="12"/>
<rect x="380" y="88" width="12" height="12"/>
<rect x="332" y="100" width="12" height="12"/>
<rect x="380" y="100" width="12" height="12"/>
<rect x="332" y="112" width="12" height="12"/>
<rect x="380" y="112" width="12" height="12"/>
<rect x="332" y="124" width="12" height="12"/>
<rect x="356" y="124" width="12" height="12"/>
<rect x="380" y="124" width="12" height="12"/>
<rect x="332" y="136" width="12" height="12"/>
<rect x="368" y="136" width="12" height="12"/>
<rect x="344" y="148" width="12" height="12"/>
<rect x="356" y="148" width="12" height="12"/>
<rect x="380" y="148" width="12" height="12"/>
<rect x="404" y="76" width="12" height="12"/>
<rect x="452" y="76" width="12" height="12"/>
<rect x="404" y="88" width="12" height="12"/>
<rect x="452" y="88" width="12" height="12"/>
<rect x="404" y="100" width="12" height="12"/>
<rect x="452" y="100" width="12" height="12"/>
<rect x="404" y="112" width="12" height="12"/>
<rect x="452" y="112" width="12" height="12"/>
<rect x="404" y="124" width="12" height="12"/>
<rect x="452" y="124" width="12" height="12"/>
<rect x="404" y="136" width="12" height="12"/>
<rect x="452" y="136" width="12" height="12"/>
<rect x="416" y="148" width="12" height="12"/>
<rect x="428" y="148" width="12" height="12"/>
<rect x="440" y="148" width="12" height="12"/>
<rect x="476" y="76" width="12" height="12"/>
<rect x="488" y="76" width="12" height="12"/>
<rect x="500" y="76" width="12" height="12"/>
<rect x="512" y="76" width="12" height="12"/>
<rect x="524" y="76" width="12" height="12"/>
<rect x="476" y="88" width="12" height="12"/>
<rect x="476" y="100" width="12" height="12"/>
<rect x="476" y="112" width="12" height="12"/>
<rect x="488" y="112" width="12" height="12"/>
<rect x="500" y="112" width="12" height="12"/>
<rect x="512" y="112" width="12" height="12"/>
<rect x="476" y="124" width="12" height="12"/>
<rect x="476" y="136" width="12" height="12"/>
<rect x="476" y="148" width="12" height="12"/>
<rect x="488" y="148" width="12" height="12"/>
<rect x="500" y="148" width="12" height="12"/>
<rect x="512" y="148" width="12" height="12"/>
<rect x="524" y="148" width="12" height="12"/>
<rect x="560" y="76" width="12" height="12"/>
<rect x="572" y="76" width="12" height="12"/>
<rect x="584" y="76" width="12" height="12"/>
<rect x="596" y="76" width="12" height="12"/>
<rect x="548" y="88" width="12" height="12"/>
<rect x="548" y="100" width="12" height="12"/>
<rect x="560" y="112" width="12" height="12"/>
<rect x="572" y="112" width="12" height="12"/>
<rect x="584" y="112" width="12" height="12"/>
<rect x="596" y="124" width="12" height="12"/>
<rect x="596" y="136" width="12" height="12"/>
<rect x="548" y="148" width="12" height="12"/>
<rect x="560" y="148" width="12" height="12"/>
<rect x="572" y="148" width="12" height="12"/>
<rect x="584" y="148" width="12" height="12"/>
<rect x="620" y="76" width="12" height="12"/>
<rect x="632" y="76" width="12" height="12"/>
<rect x="644" y="76" width="12" height="12"/>
<rect x="656" y="76" width="12" height="12"/>
<rect x="668" y="76" width="12" height="12"/>
<rect x="644" y="88" width="12" height="12"/>
<rect x="644" y="100" width="12" height="12"/>
<rect x="644" y="112" width="12" height="12"/>
<rect x="644" y="124" width="12" height="12"/>
<rect x="644" y="136" width="12" height="12"/>
<rect x="644" y="148" width="12" height="12"/>
<rect x="692" y="112" width="12" height="12"/>
<rect x="704" y="112" width="12" height="12"/>
<rect x="716" y="112" width="12" height="12"/>
<rect x="728" y="112" width="12" height="12"/>
<rect x="740" y="112" width="12" height="12"/>
<rect x="764" y="76" width="12" height="12"/>
<rect x="812" y="76" width="12" height="12"/>
<rect x="764" y="88" width="12" height="12"/>
<rect x="776" y="88" width="12" height="12"/>
<rect x="800" y="88" width="12" height="12"/>
<rect x="812" y="88" width="12" height="12"/>
<rect x="764" y="100" width="12" height="12"/>
<rect x="788" y="100" width="12" height="12"/>
<rect x="812" y="100" width="12" height="12"/>
<rect x="764" y="112" width="12" height="12"/>
<rect x="788" y="112" width="12" height="12"/>
<rect x="812" y="112" width="12" height="12"/>
<rect x="764" y="124" width="12" height="12"/>
<rect x="812" y="124" width="12" height="12"/>
<rect x="764" y="136" width="12" height="12"/>
<rect x="812" y="136" width="12" height="12"/>
<rect x="764" y="148" width="12" height="12"/>
<rect x="812" y="148" width="12" height="12"/>
<rect x="848" y="76" width="12" height="12"/>
<rect x="860" y="76" width="12" height="12"/>
<rect x="872" y="76" width="12" height="12"/>
<rect x="836" y="88" width="12" height="12"/>
<rect x="884" y="88" width="12" height="12"/>
<rect x="836" y="100" width="12" height="12"/>
<rect x="836" y="112" width="12" height="12"/>
<rect x="836" y="124" width="12" height="12"/>
<rect x="836" y="136" width="12" height="12"/>
<rect x="884" y="136" width="12" height="12"/>
<rect x="848" y="148" width="12" height="12"/>
<rect x="860" y="148" width="12" height="12"/>
<rect x="872" y="148" width="12" height="12"/>
<rect x="908" y="76" width="12" height="12"/>
<rect x="920" y="76" width="12" height="12"/>
<rect x="932" y="76" width="12" height="12"/>
<rect x="944" y="76" width="12" height="12"/>
<rect x="908" y="88" width="12" height="12"/>
<rect x="956" y="88" width="12" height="12"/>
<rect x="908" y="100" width="12" height="12"/>
<rect x="956" y="100" width="12" height="12"/>
<rect x="908" y="112" width="12" height="12"/>
<rect x="920" y="112" width="12" height="12"/>
<rect x="932" y="112" width="12" height="12"/>
<rect x="944" y="112" width="12" height="12"/>
<rect x="908" y="124" width="12" height="12"/>
<rect x="908" y="136" width="12" height="12"/>
<rect x="908" y="148" width="12" height="12"/>
</g>
<g fill="#f97316" fill-opacity="0.32" shape-rendering="crispEdges">
<rect x="52" y="72" width="12" height="12"/>
<rect x="64" y="72" width="12" height="12"/>
<rect x="76" y="72" width="12" height="12"/>
<rect x="40" y="84" width="12" height="12"/>
<rect x="88" y="84" width="12" height="12"/>
<rect x="40" y="96" width="12" height="12"/>
<rect x="40" y="108" width="12" height="12"/>
<rect x="40" y="120" width="12" height="12"/>
<rect x="40" y="132" width="12" height="12"/>
<rect x="88" y="132" width="12" height="12"/>
<rect x="52" y="144" width="12" height="12"/>
<rect x="64" y="144" width="12" height="12"/>
<rect x="76" y="144" width="12" height="12"/>
<rect x="124" y="72" width="12" height="12"/>
<rect x="136" y="72" width="12" height="12"/>
<rect x="148" y="72" width="12" height="12"/>
<rect x="112" y="84" width="12" height="12"/>
<rect x="160" y="84" width="12" height="12"/>
<rect x="112" y="96" width="12" height="12"/>
<rect x="160" y="96" width="12" height="12"/>
<rect x="112" y="108" width="12" height="12"/>
<rect x="160" y="108" width="12" height="12"/>
<rect x="112" y="120" width="12" height="12"/>
<rect x="160" y="120" width="12" height="12"/>
<rect x="112" y="132" width="12" height="12"/>
<rect x="160" y="132" width="12" height="12"/>
<rect x="124" y="144" width="12" height="12"/>
<rect x="136" y="144" width="12" height="12"/>
<rect x="148" y="144" width="12" height="12"/>
<rect x="184" y="72" width="12" height="12"/>
<rect x="196" y="72" width="12" height="12"/>
<rect x="208" y="72" width="12" height="12"/>
<rect x="220" y="72" width="12" height="12"/>
<rect x="184" y="84" width="12" height="12"/>
<rect x="232" y="84" width="12" height="12"/>
<rect x="184" y="96" width="12" height="12"/>
<rect x="232" y="96" width="12" height="12"/>
<rect x="184" y="108" width="12" height="12"/>
<rect x="232" y="108" width="12" height="12"/>
<rect x="184" y="120" width="12" height="12"/>
<rect x="232" y="120" width="12" height="12"/>
<rect x="184" y="132" width="12" height="12"/>
<rect x="232" y="132" width="12" height="12"/>
<rect x="184" y="144" width="12" height="12"/>
<rect x="196" y="144" width="12" height="12"/>
<rect x="208" y="144" width="12" height="12"/>
<rect x="220" y="144" width="12" height="12"/>
<rect x="256" y="72" width="12" height="12"/>
<rect x="268" y="72" width="12" height="12"/>
<rect x="280" y="72" width="12" height="12"/>
<rect x="292" y="72" width="12" height="12"/>
<rect x="304" y="72" width="12" height="12"/>
<rect x="256" y="84" width="12" height="12"/>
<rect x="256" y="96" width="12" height="12"/>
<rect x="256" y="108" width="12" height="12"/>
<rect x="268" y="108" width="12" height="12"/>
<rect x="280" y="108" width="12" height="12"/>
<rect x="292" y="108" width="12" height="12"/>
<rect x="256" y="120" width="12" height="12"/>
<rect x="256" y="132" width="12" height="12"/>
<rect x="256" y="144" width="12" height="12"/>
<rect x="268" y="144" width="12" height="12"/>
<rect x="280" y="144" width="12" height="12"/>
<rect x="292" y="144" width="12" height="12"/>
<rect x="304" y="144" width="12" height="12"/>
<rect x="340" y="72" width="12" height="12"/>
<rect x="352" y="72" width="12" height="12"/>
<rect x="364" y="72" width="12" height="12"/>
<rect x="328" y="84" width="12" height="12"/>
<rect x="376" y="84" width="12" height="12"/>
<rect x="328" y="96" width="12" height="12"/>
<rect x="376" y="96" width="12" height="12"/>
<rect x="328" y="108" width="12" height="12"/>
<rect x="376" y="108" width="12" height="12"/>
<rect x="328" y="120" width="12" height="12"/>
<rect x="352" y="120" width="12" height="12"/>
<rect x="376" y="120" width="12" height="12"/>
<rect x="328" y="132" width="12" height="12"/>
<rect x="364" y="132" width="12" height="12"/>
<rect x="340" y="144" width="12" height="12"/>
<rect x="352" y="144" width="12" height="12"/>
<rect x="376" y="144" width="12" height="12"/>
<rect x="400" y="72" width="12" height="12"/>
<rect x="448" y="72" width="12" height="12"/>
<rect x="400" y="84" width="12" height="12"/>
<rect x="448" y="84" width="12" height="12"/>
<rect x="400" y="96" width="12" height="12"/>
<rect x="448" y="96" width="12" height="12"/>
<rect x="400" y="108" width="12" height="12"/>
<rect x="448" y="108" width="12" height="12"/>
<rect x="400" y="120" width="12" height="12"/>
<rect x="448" y="120" width="12" height="12"/>
<rect x="400" y="132" width="12" height="12"/>
<rect x="448" y="132" width="12" height="12"/>
<rect x="412" y="144" width="12" height="12"/>
<rect x="424" y="144" width="12" height="12"/>
<rect x="436" y="144" width="12" height="12"/>
<rect x="472" y="72" width="12" height="12"/>
<rect x="484" y="72" width="12" height="12"/>
<rect x="496" y="72" width="12" height="12"/>
<rect x="508" y="72" width="12" height="12"/>
<rect x="520" y="72" width="12" height="12"/>
<rect x="472" y="84" width="12" height="12"/>
<rect x="472" y="96" width="12" height="12"/>
<rect x="472" y="108" width="12" height="12"/>
<rect x="484" y="108" width="12" height="12"/>
<rect x="496" y="108" width="12" height="12"/>
<rect x="508" y="108" width="12" height="12"/>
<rect x="472" y="120" width="12" height="12"/>
<rect x="472" y="132" width="12" height="12"/>
<rect x="472" y="144" width="12" height="12"/>
<rect x="484" y="144" width="12" height="12"/>
<rect x="496" y="144" width="12" height="12"/>
<rect x="508" y="144" width="12" height="12"/>
<rect x="520" y="144" width="12" height="12"/>
<rect x="556" y="72" width="12" height="12"/>
<rect x="568" y="72" width="12" height="12"/>
<rect x="580" y="72" width="12" height="12"/>
<rect x="592" y="72" width="12" height="12"/>
<rect x="544" y="84" width="12" height="12"/>
<rect x="544" y="96" width="12" height="12"/>
<rect x="556" y="108" width="12" height="12"/>
<rect x="568" y="108" width="12" height="12"/>
<rect x="580" y="108" width="12" height="12"/>
<rect x="592" y="120" width="12" height="12"/>
<rect x="592" y="132" width="12" height="12"/>
<rect x="544" y="144" width="12" height="12"/>
<rect x="556" y="144" width="12" height="12"/>
<rect x="568" y="144" width="12" height="12"/>
<rect x="580" y="144" width="12" height="12"/>
<rect x="616" y="72" width="12" height="12"/>
<rect x="628" y="72" width="12" height="12"/>
<rect x="640" y="72" width="12" height="12"/>
<rect x="652" y="72" width="12" height="12"/>
<rect x="664" y="72" width="12" height="12"/>
<rect x="640" y="84" width="12" height="12"/>
<rect x="640" y="96" width="12" height="12"/>
<rect x="640" y="108" width="12" height="12"/>
<rect x="640" y="120" width="12" height="12"/>
<rect x="640" y="132" width="12" height="12"/>
<rect x="640" y="144" width="12" height="12"/>
<rect x="688" y="108" width="12" height="12"/>
<rect x="700" y="108" width="12" height="12"/>
<rect x="712" y="108" width="12" height="12"/>
<rect x="724" y="108" width="12" height="12"/>
<rect x="736" y="108" width="12" height="12"/>
<rect x="760" y="72" width="12" height="12"/>
<rect x="808" y="72" width="12" height="12"/>
<rect x="760" y="84" width="12" height="12"/>
<rect x="772" y="84" width="12" height="12"/>
<rect x="796" y="84" width="12" height="12"/>
<rect x="808" y="84" width="12" height="12"/>
<rect x="760" y="96" width="12" height="12"/>
<rect x="784" y="96" width="12" height="12"/>
<rect x="808" y="96" width="12" height="12"/>
<rect x="760" y="108" width="12" height="12"/>
<rect x="784" y="108" width="12" height="12"/>
<rect x="808" y="108" width="12" height="12"/>
<rect x="760" y="120" width="12" height="12"/>
<rect x="808" y="120" width="12" height="12"/>
<rect x="760" y="132" width="12" height="12"/>
<rect x="808" y="132" width="12" height="12"/>
<rect x="760" y="144" width="12" height="12"/>
<rect x="808" y="144" width="12" height="12"/>
<rect x="844" y="72" width="12" height="12"/>
<rect x="856" y="72" width="12" height="12"/>
<rect x="868" y="72" width="12" height="12"/>
<rect x="832" y="84" width="12" height="12"/>
<rect x="880" y="84" width="12" height="12"/>
<rect x="832" y="96" width="12" height="12"/>
<rect x="832" y="108" width="12" height="12"/>
<rect x="832" y="120" width="12" height="12"/>
<rect x="832" y="132" width="12" height="12"/>
<rect x="880" y="132" width="12" height="12"/>
<rect x="844" y="144" width="12" height="12"/>
<rect x="856" y="144" width="12" height="12"/>
<rect x="868" y="144" width="12" height="12"/>
<rect x="904" y="72" width="12" height="12"/>
<rect x="916" y="72" width="12" height="12"/>
<rect x="928" y="72" width="12" height="12"/>
<rect x="940" y="72" width="12" height="12"/>
<rect x="904" y="84" width="12" height="12"/>
<rect x="952" y="84" width="12" height="12"/>
<rect x="904" y="96" width="12" height="12"/>
<rect x="952" y="96" width="12" height="12"/>
<rect x="904" y="108" width="12" height="12"/>
<rect x="916" y="108" width="12" height="12"/>
<rect x="928" y="108" width="12" height="12"/>
<rect x="940" y="108" width="12" height="12"/>
<rect x="904" y="120" width="12" height="12"/>
<rect x="904" y="132" width="12" height="12"/>
<rect x="904" y="144" width="12" height="12"/>
</g>
<g shape-rendering="crispEdges">
<rect x="48" y="68" width="12" height="12" fill="#fdba74"/>
<rect x="60" y="68" width="12" height="12" fill="#fdba74"/>
<rect x="72" y="68" width="12" height="12" fill="#fdba74"/>
<rect x="36" y="80" width="12" height="12" fill="#fdba74"/>
<rect x="84" y="80" width="12" height="12" fill="#fdba74"/>
<rect x="36" y="92" width="12" height="12" fill="#f97316"/>
<rect x="36" y="104" width="12" height="12" fill="#f97316"/>
<rect x="36" y="116" width="12" height="12" fill="#ea580c"/>
<rect x="36" y="128" width="12" height="12" fill="#c2410c"/>
<rect x="84" y="128" width="12" height="12" fill="#c2410c"/>
<rect x="48" y="140" width="12" height="12" fill="#c2410c"/>
<rect x="60" y="140" width="12" height="12" fill="#c2410c"/>
<rect x="72" y="140" width="12" height="12" fill="#c2410c"/>
<rect x="120" y="68" width="12" height="12" fill="#fdba74"/>
<rect x="132" y="68" width="12" height="12" fill="#fdba74"/>
<rect x="144" y="68" width="12" height="12" fill="#fdba74"/>
<rect x="108" y="80" width="12" height="12" fill="#fdba74"/>
<rect x="156" y="80" width="12" height="12" fill="#fdba74"/>
<rect x="108" y="92" width="12" height="12" fill="#f97316"/>
<rect x="156" y="92" width="12" height="12" fill="#f97316"/>
<rect x="108" y="104" width="12" height="12" fill="#f97316"/>
<rect x="156" y="104" width="12" height="12" fill="#f97316"/>
<rect x="108" y="116" width="12" height="12" fill="#ea580c"/>
<rect x="156" y="116" width="12" height="12" fill="#ea580c"/>
<rect x="108" y="128" width="12" height="12" fill="#c2410c"/>
<rect x="156" y="128" width="12" height="12" fill="#c2410c"/>
<rect x="120" y="140" width="12" height="12" fill="#c2410c"/>
<rect x="132" y="140" width="12" height="12" fill="#c2410c"/>
<rect x="144" y="140" width="12" height="12" fill="#c2410c"/>
<rect x="180" y="68" width="12" height="12" fill="#fdba74"/>
<rect x="192" y="68" width="12" height="12" fill="#fdba74"/>
<rect x="204" y="68" width="12" height="12" fill="#fdba74"/>
<rect x="216" y="68" width="12" height="12" fill="#fdba74"/>
<rect x="180" y="80" width="12" height="12" fill="#fdba74"/>
<rect x="228" y="80" width="12" height="12" fill="#fdba74"/>
<rect x="180" y="92" width="12" height="12" fill="#f97316"/>
<rect x="228" y="92" width="12" height="12" fill="#f97316"/>
<rect x="180" y="104" width="12" height="12" fill="#f97316"/>
<rect x="228" y="104" width="12" height="12" fill="#f97316"/>
<rect x="180" y="116" width="12" height="12" fill="#ea580c"/>
<rect x="228" y="116" width="12" height="12" fill="#ea580c"/>
<rect x="180" y="128" width="12" height="12" fill="#c2410c"/>
<rect x="228" y="128" width="12" height="12" fill="#c2410c"/>
<rect x="180" y="140" width="12" height="12" fill="#c2410c"/>
<rect x="192" y="140" width="12" height="12" fill="#c2410c"/>
<rect x="204" y="140" width="12" height="12" fill="#c2410c"/>
<rect x="216" y="140" width="12" height="12" fill="#c2410c"/>
<rect x="252" y="68" width="12" height="12" fill="#fdba74"/>
<rect x="264" y="68" width="12" height="12" fill="#fdba74"/>
<rect x="276" y="68" width="12" height="12" fill="#fdba74"/>
<rect x="288" y="68" width="12" height="12" fill="#fdba74"/>
<rect x="300" y="68" width="12" height="12" fill="#fdba74"/>
<rect x="252" y="80" width="12" height="12" fill="#fdba74"/>
<rect x="252" y="92" width="12" height="12" fill="#f97316"/>
<rect x="252" y="104" width="12" height="12" fill="#f97316"/>
<rect x="264" y="104" width="12" height="12" fill="#f97316"/>
<rect x="276" y="104" width="12" height="12" fill="#f97316"/>
<rect x="288" y="104" width="12" height="12" fill="#f97316"/>
<rect x="252" y="116" width="12" height="12" fill="#ea580c"/>
<rect x="252" y="128" width="12" height="12" fill="#c2410c"/>
<rect x="252" y="140" width="12" height="12" fill="#c2410c"/>
<rect x="264" y="140" width="12" height="12" fill="#c2410c"/>
<rect x="276" y="140" width="12" height="12" fill="#c2410c"/>
<rect x="288" y="140" width="12" height="12" fill="#c2410c"/>
<rect x="300" y="140" width="12" height="12" fill="#c2410c"/>
<rect x="336" y="68" width="12" height="12" fill="#fdba74"/>
<rect x="348" y="68" width="12" height="12" fill="#fdba74"/>
<rect x="360" y="68" width="12" height="12" fill="#fdba74"/>
<rect x="324" y="80" width="12" height="12" fill="#fdba74"/>
<rect x="372" y="80" width="12" height="12" fill="#fdba74"/>
<rect x="324" y="92" width="12" height="12" fill="#f97316"/>
<rect x="372" y="92" width="12" height="12" fill="#f97316"/>
<rect x="324" y="104" width="12" height="12" fill="#f97316"/>
<rect x="372" y="104" width="12" height="12" fill="#f97316"/>
<rect x="324" y="116" width="12" height="12" fill="#ea580c"/>
<rect x="348" y="116" width="12" height="12" fill="#ea580c"/>
<rect x="372" y="116" width="12" height="12" fill="#ea580c"/>
<rect x="324" y="128" width="12" height="12" fill="#c2410c"/>
<rect x="360" y="128" width="12" height="12" fill="#c2410c"/>
<rect x="336" y="140" width="12" height="12" fill="#c2410c"/>
<rect x="348" y="140" width="12" height="12" fill="#c2410c"/>
<rect x="372" y="140" width="12" height="12" fill="#c2410c"/>
<rect x="396" y="68" width="12" height="12" fill="#fdba74"/>
<rect x="444" y="68" width="12" height="12" fill="#fdba74"/>
<rect x="396" y="80" width="12" height="12" fill="#fdba74"/>
<rect x="444" y="80" width="12" height="12" fill="#fdba74"/>
<rect x="396" y="92" width="12" height="12" fill="#f97316"/>
<rect x="444" y="92" width="12" height="12" fill="#f97316"/>
<rect x="396" y="104" width="12" height="12" fill="#f97316"/>
<rect x="444" y="104" width="12" height="12" fill="#f97316"/>
<rect x="396" y="116" width="12" height="12" fill="#ea580c"/>
<rect x="444" y="116" width="12" height="12" fill="#ea580c"/>
<rect x="396" y="128" width="12" height="12" fill="#c2410c"/>
<rect x="444" y="128" width="12" height="12" fill="#c2410c"/>
<rect x="408" y="140" width="12" height="12" fill="#c2410c"/>
<rect x="420" y="140" width="12" height="12" fill="#c2410c"/>
<rect x="432" y="140" width="12" height="12" fill="#c2410c"/>
<rect x="468" y="68" width="12" height="12" fill="#fdba74"/>
<rect x="480" y="68" width="12" height="12" fill="#fdba74"/>
<rect x="492" y="68" width="12" height="12" fill="#fdba74"/>
<rect x="504" y="68" width="12" height="12" fill="#fdba74"/>
<rect x="516" y="68" width="12" height="12" fill="#fdba74"/>
<rect x="468" y="80" width="12" height="12" fill="#fdba74"/>
<rect x="468" y="92" width="12" height="12" fill="#f97316"/>
<rect x="468" y="104" width="12" height="12" fill="#f97316"/>
<rect x="480" y="104" width="12" height="12" fill="#f97316"/>
<rect x="492" y="104" width="12" height="12" fill="#f97316"/>
<rect x="504" y="104" width="12" height="12" fill="#f97316"/>
<rect x="468" y="116" width="12" height="12" fill="#ea580c"/>
<rect x="468" y="128" width="12" height="12" fill="#c2410c"/>
<rect x="468" y="140" width="12" height="12" fill="#c2410c"/>
<rect x="480" y="140" width="12" height="12" fill="#c2410c"/>
<rect x="492" y="140" width="12" height="12" fill="#c2410c"/>
<rect x="504" y="140" width="12" height="12" fill="#c2410c"/>
<rect x="516" y="140" width="12" height="12" fill="#c2410c"/>
<rect x="552" y="68" width="12" height="12" fill="#fdba74"/>
<rect x="564" y="68" width="12" height="12" fill="#fdba74"/>
<rect x="576" y="68" width="12" height="12" fill="#fdba74"/>
<rect x="588" y="68" width="12" height="12" fill="#fdba74"/>
<rect x="540" y="80" width="12" height="12" fill="#fdba74"/>
<rect x="540" y="92" width="12" height="12" fill="#f97316"/>
<rect x="552" y="104" width="12" height="12" fill="#f97316"/>
<rect x="564" y="104" width="12" height="12" fill="#f97316"/>
<rect x="576" y="104" width="12" height="12" fill="#f97316"/>
<rect x="588" y="116" width="12" height="12" fill="#ea580c"/>
<rect x="588" y="128" width="12" height="12" fill="#c2410c"/>
<rect x="540" y="140" width="12" height="12" fill="#c2410c"/>
<rect x="552" y="140" width="12" height="12" fill="#c2410c"/>
<rect x="564" y="140" width="12" height="12" fill="#c2410c"/>
<rect x="576" y="140" width="12" height="12" fill="#c2410c"/>
<rect x="612" y="68" width="12" height="12" fill="#fdba74"/>
<rect x="624" y="68" width="12" height="12" fill="#fdba74"/>
<rect x="636" y="68" width="12" height="12" fill="#fdba74"/>
<rect x="648" y="68" width="12" height="12" fill="#fdba74"/>
<rect x="660" y="68" width="12" height="12" fill="#fdba74"/>
<rect x="636" y="80" width="12" height="12" fill="#fdba74"/>
<rect x="636" y="92" width="12" height="12" fill="#f97316"/>
<rect x="636" y="104" width="12" height="12" fill="#f97316"/>
<rect x="636" y="116" width="12" height="12" fill="#ea580c"/>
<rect x="636" y="128" width="12" height="12" fill="#c2410c"/>
<rect x="636" y="140" width="12" height="12" fill="#c2410c"/>
<rect x="684" y="104" width="12" height="12" fill="#f97316"/>
<rect x="696" y="104" width="12" height="12" fill="#f97316"/>
<rect x="708" y="104" width="12" height="12" fill="#f97316"/>
<rect x="720" y="104" width="12" height="12" fill="#f97316"/>
<rect x="732" y="104" width="12" height="12" fill="#f97316"/>
<rect x="756" y="68" width="12" height="12" fill="#fdba74"/>
<rect x="804" y="68" width="12" height="12" fill="#fdba74"/>
<rect x="756" y="80" width="12" height="12" fill="#fdba74"/>
<rect x="768" y="80" width="12" height="12" fill="#fdba74"/>
<rect x="792" y="80" width="12" height="12" fill="#fdba74"/>
<rect x="804" y="80" width="12" height="12" fill="#fdba74"/>
<rect x="756" y="92" width="12" height="12" fill="#f97316"/>
<rect x="780" y="92" width="12" height="12" fill="#f97316"/>
<rect x="804" y="92" width="12" height="12" fill="#f97316"/>
<rect x="756" y="104" width="12" height="12" fill="#f97316"/>
<rect x="780" y="104" width="12" height="12" fill="#f97316"/>
<rect x="804" y="104" width="12" height="12" fill="#f97316"/>
<rect x="756" y="116" width="12" height="12" fill="#ea580c"/>
<rect x="804" y="116" width="12" height="12" fill="#ea580c"/>
<rect x="756" y="128" width="12" height="12" fill="#c2410c"/>
<rect x="804" y="128" width="12" height="12" fill="#c2410c"/>
<rect x="756" y="140" width="12" height="12" fill="#c2410c"/>
<rect x="804" y="140" width="12" height="12" fill="#c2410c"/>
<rect x="840" y="68" width="12" height="12" fill="#fdba74"/>
<rect x="852" y="68" width="12" height="12" fill="#fdba74"/>
<rect x="864" y="68" width="12" height="12" fill="#fdba74"/>
<rect x="828" y="80" width="12" height="12" fill="#fdba74"/>
<rect x="876" y="80" width="12" height="12" fill="#fdba74"/>
<rect x="828" y="92" width="12" height="12" fill="#f97316"/>
<rect x="828" y="104" width="12" height="12" fill="#f97316"/>
<rect x="828" y="116" width="12" height="12" fill="#ea580c"/>
<rect x="828" y="128" width="12" height="12" fill="#c2410c"/>
<rect x="876" y="128" width="12" height="12" fill="#c2410c"/>
<rect x="840" y="140" width="12" height="12" fill="#c2410c"/>
<rect x="852" y="140" width="12" height="12" fill="#c2410c"/>
<rect x="864" y="140" width="12" height="12" fill="#c2410c"/>
<rect x="900" y="68" width="12" height="12" fill="#fdba74"/>
<rect x="912" y="68" width="12" height="12" fill="#fdba74"/>
<rect x="924" y="68" width="12" height="12" fill="#fdba74"/>
<rect x="936" y="68" width="12" height="12" fill="#fdba74"/>
<rect x="900" y="80" width="12" height="12" fill="#fdba74"/>
<rect x="948" y="80" width="12" height="12" fill="#fdba74"/>
<rect x="900" y="92" width="12" height="12" fill="#f97316"/>
<rect x="948" y="92" width="12" height="12" fill="#f97316"/>
<rect x="900" y="104" width="12" height="12" fill="#f97316"/>
<rect x="912" y="104" width="12" height="12" fill="#f97316"/>
<rect x="924" y="104" width="12" height="12" fill="#f97316"/>
<rect x="936" y="104" width="12" height="12" fill="#f97316"/>
<rect x="900" y="116" width="12" height="12" fill="#ea580c"/>
<rect x="900" y="128" width="12" height="12" fill="#c2410c"/>
<rect x="900" y="140" width="12" height="12" fill="#c2410c"/>
</g>
<text x="500" y="188" text-anchor="middle" font-family="ui-monospace,Consolas,Menlo,monospace" font-size="15" letter-spacing="3" fill="#7d8590">RPG PROGRESSION OVER REAL DEV WORK · MCP SERVER</text>
</svg>
